<?xml version="1.0" encoding="iso-8859-1"?>
<!-- Generator: Adobe Illustrator 19.0.0, SVG Export Plug-In . SVG Version: 6.00 Build 0)  -->
<svg version="1.1" id="Capa_1" xmlns="http://www.w3.org/2000/svg" xmlns:xlink="http://www.w3.org/1999/xlink" x="0px" y="0px"
	 viewBox="0 0 512 512" style="enable-background:new 0 0 512 512;" xml:space="preserve">
<g>
	<g>
		<path d="M396,40c-5.52,0-10,4.48-10,10s4.48,10,10,10c5.52,0,10-4.48,10-10S401.52,40,396,40z"/>
	</g>
</g>
<g>
	<g>
		<path d="M396,452c-5.52,0-10,4.48-10,10c0,5.52,4.48,10,10,10c5.52,0,10-4.48,10-10C406,456.48,401.52,452,396,452z"/>
	</g>
</g>
<g>
	<g>
		<path d="M256,292c-5.52,0-10,4.48-10,10c0,5.52,4.48,10,10,10s10-4.48,10-10C266,296.48,261.52,292,256,292z"/>
	</g>
</g>
<g>
	<g>
		<path d="M256,352c-5.52,0-10,4.48-10,10c0,5.52,4.48,10,10,10s10-4.48,10-10C266,356.48,261.52,352,256,352z"/>
	</g>
</g>
<g>
	<g>
		<path d="M256,412c-5.52,0-10,4.48-10,10c0,5.52,4.48,10,10,10s10-4.48,10-10C266,416.48,261.52,412,256,412z"/>
	</g>
</g>
<g>
	<g>
		<path d="M116,40c-5.52,0-10,4.48-10,10s4.48,10,10,10s10-4.48,10-10S121.52,40,116,40z"/>
	</g>
</g>
<g>
	<g>
		<path d="M116,452c-5.52,0-10,4.48-10,10c0,5.52,4.48,10,10,10s10-4.48,10-10C126,456.48,121.52,452,116,452z"/>
	</g>
</g>
<g>
	<g>
		<path d="M416,0H96C79.458,0,66,13.458,66,30v452c0,16.542,13.458,30,30,30h320c16.542,0,30-13.458,30-30V30
			C446,13.458,432.542,0,416,0z M426,482c0,5.514-4.486,10-10,10H96c-5.514,0-10-4.486-10-10V30c0-5.514,4.486-10,10-10h320
			c5.514,0,10,4.486,10,10V482z"/>
	</g>
</g>
<g>
	<g>
		<path d="M356,86H156c-16.542,0-30,13.458-30,30c0,12.746,0,87.667,0,100c0,16.542,13.458,30,30,30h200
			c16.538,0,29.994-13.452,30-29.989c0-0.005,0-0.011,0-0.016V116C386,99.458,372.542,86,356,86z M156,226.001
			c-5.514-0.001-10-4.487-10-10.001v-15.857l50-50c11.682,11.682,64.037,64.037,75.857,75.858H156z M356,226h-55.857l-20-20
			L316,170.142l49.356,49.356C363.933,223.29,360.282,226,356,226z M366,191.857l-42.929-42.929c-3.906-3.905-10.236-3.905-14.143,0
			L266,191.857l-62.929-62.929c-3.906-3.905-10.236-3.905-14.143,0L146,171.857V116c0-5.514,4.486-10,10-10h200
			c5.514,0,10,4.486,10,10V191.857z"/>
	</g>
</g>
<g>
	<g>
		<path d="M216,292h-80c-5.522,0-10,4.477-10,10s4.478,10,10,10h80c5.522,0,10-4.477,10-10S221.522,292,216,292z"/>
	</g>
</g>
<g>
	<g>
		<path d="M216,352h-80c-5.522,0-10,4.477-10,10s4.478,10,10,10h80c5.522,0,10-4.477,10-10S221.522,352,216,352z"/>
	</g>
</g>
<g>
	<g>
		<path d="M216,412h-80c-5.522,0-10,4.477-10,10s4.478,10,10,10h80c5.522,0,10-4.477,10-10S221.522,412,216,412z"/>
	</g>
</g>
<g>
	<g>
		<path d="M376,292h-80c-5.522,0-10,4.477-10,10s4.478,10,10,10h80c5.522,0,10-4.477,10-10S381.522,292,376,292z"/>
	</g>
</g>
<g>
	<g>
		<path d="M376,352h-80c-5.522,0-10,4.477-10,10s4.478,10,10,10h80c5.522,0,10-4.477,10-10S381.522,352,376,352z"/>
	</g>
</g>
<g>
	<g>
		<path d="M376,412h-80c-5.522,0-10,4.477-10,10s4.478,10,10,10h80c5.522,0,10-4.477,10-10S381.522,412,376,412z"/>
	</g>
</g>
<g>
</g>
<g>
</g>
<g>
</g>
<g>
</g>
<g>
</g>
<g>
</g>
<g>
</g>
<g>
</g>
<g>
</g>
<g>
</g>
<g>
</g>
<g>
</g>
<g>
</g>
<g>
</g>
<g>
</g>
</svg>
