<?xml version="1.0"?>
<svg xmlns="http://www.w3.org/2000/svg" viewBox="0 0 512 512" width="512" height="512"><g id="Outline"><path d="M104,352a24,24,0,1,0,24,24A24.027,24.027,0,0,0,104,352Zm0,32a8,8,0,1,1,8-8A8.009,8.009,0,0,1,104,384Zm296-32a24,24,0,1,0,24,24A24.027,24.027,0,0,0,400,352Zm0,32a8,8,0,1,1,8-8A8.009,8.009,0,0,1,400,384ZM200,192H80V176H200ZM64,192H48V176H64Zm24-80H200v16H88ZM224,400h96v16H224Zm-32,0h16v16H192ZM48,80h96V96H48ZM32,96H16V80H32ZM495.8,308.627c-.009-.066-.023-.132-.032-.2-.78-5.653-3.872-12.209-8.772-15.476l-32.156-25.724-9.918-29.758-15.179,5.058L436.9,264H360V192h52.9l11.51,34.529,15.178-5.058-20.353-61.064A23.975,23.975,0,0,0,396.47,144H40a24.027,24.027,0,0,0-24,24v24H32V168a8.009,8.009,0,0,1,8-8H396.47a7.994,7.994,0,0,1,7.591,5.471L407.57,176H360a16.019,16.019,0,0,0-16,16v72a16.019,16.019,0,0,0,16,16h85.194l19.959,15.968L460,296a12.013,12.013,0,0,0-12,12v24a12.024,12.024,0,0,0,12.051,12L480,343.872V360a8.009,8.009,0,0,1-8,8H455.419a55.992,55.992,0,0,0-110.838,0H328V344h16V328H328V192a16.019,16.019,0,0,0-16-16H232a16.019,16.019,0,0,0-16,16V328H160v16h56v24H159.419A55.964,55.964,0,0,0,75.19,328H64V280.329A16.348,16.348,0,0,0,47.67,264H32V208H16s.378,156.876,1.081,159.129A24.043,24.043,0,0,0,40,384h8.581a55.992,55.992,0,0,0,110.838,0H344.581a55.992,55.992,0,0,0,110.838,0H472a24.028,24.028,0,0,0,24-24s-.064-50.25-.182-51.212C495.811,308.734,495.809,308.68,495.8,308.627ZM32,280H47.67a.329.329,0,0,1,.33.329V296H32Zm0,32H48v16H32Zm16.581,56H40a8.009,8.009,0,0,1-8-8V344H58.083A55.653,55.653,0,0,0,48.581,368ZM104,416a40,40,0,1,1,40-40A40.045,40.045,0,0,1,104,416Zm208-48H232V192h80Zm88,48a40,40,0,1,1,40-40A40.045,40.045,0,0,1,400,416Zm80-88.129-16,.1v-16l16-.1ZM80,264H200v16H80Zm216,16H264V264h32Z"/></g></svg>
